<svg width="468" height="81" viewBox="0 0 468 81" fill="none" xmlns="http://www.w3.org/2000/svg">
<path d="M26.0127 59.7603C40.4642 59.7603 49.2872 52.2237 49.2872 40.5C49.2872 32.2782 44.2672 26.7209 33.923 24.437L23.8069 22.1532C19.9278 21.2397 17.8742 20.0216 17.8742 17.7378C17.8742 15.4539 19.7757 14.0075 24.1112 14.0075C29.3593 14.0075 34.8357 16.5197 38.5627 19.9455L47.0814 7.38438C42.9742 3.73025 34.5315 0.532881 24.0351 0.532881C10.4963 0.532881 1.36908 7.23214 1.36908 18.6513C1.36908 26.9492 6.00878 33.0395 15.9727 35.3233L26.0887 37.6833C31.1087 38.8252 32.706 40.2716 32.706 42.2509C32.706 44.7632 30.6524 46.1335 26.0127 46.1335C20.5363 46.1335 13.9191 43.8496 8.59482 39.282L0 51.7669C3.95514 55.4211 13.0824 59.7603 26.0127 59.7603ZM66.1726 19.7932C71.725 19.7932 76.0605 15.4539 76.0605 9.89662C76.0605 4.33929 71.725 0 66.1726 0C60.6202 0 56.2847 4.33929 56.2847 9.89662C56.2087 15.4539 60.5441 19.7932 66.1726 19.7932ZM55.4481 58.6184H76.8971L72.3335 23.1429C68.9108 24.1325 63.4344 24.1325 60.0117 23.1429L55.4481 58.6184ZM86.9371 58.6184H104.051V27.9389C104.051 20.4022 107.702 15.7584 114.775 15.7584C121.469 15.7584 125.043 19.641 125.043 27.9389V58.6184H142.157V23.5996C142.157 8.29793 134.551 0.456772 121.392 0.456772C113.862 0.456772 108.158 3.42576 104.051 9.21147V5.55732C104.051 3.0451 102.606 1.59869 100.096 1.59869H87.0132V58.6184H86.9371ZM194.411 5.48119V8.90694C190.531 3.12123 184.371 0.380639 177.069 0.380639C163.302 0.380639 151.284 12.4849 151.284 28.7002C151.284 44.9154 163.226 57.0197 177.069 57.0197C184.371 57.0197 190.303 54.7359 194.411 49.6353V53.2895C194.411 61.0545 189.314 66.6118 180.491 66.6118C172.657 66.6118 166.572 63.3383 162.845 59.6842L153.946 72.9304C159.651 78.031 169.082 81 180.491 81C197.605 81 211.524 72.4737 211.524 51.0056V1.59869H198.442C195.856 1.52256 194.411 2.96897 194.411 5.48119ZM181.632 41.9464C174.483 41.9464 168.626 36.1607 168.626 28.7002C168.626 21.3158 174.407 15.4539 181.632 15.4539C189.391 15.4539 194.943 21.2396 194.943 28.7002C194.943 36.0846 189.391 41.9464 181.632 41.9464ZM259.518 59.7603C274.35 59.7603 286.292 47.656 286.292 30.0705C286.292 12.485 274.35 0.380639 259.518 0.380639C251.76 0.380639 245.371 3.12123 241.188 8.90694V5.48119C241.188 2.96897 239.743 1.52256 237.233 1.52256H224.15V79.6297H241.264V52.3759C245.599 57.4765 251.76 59.7603 259.518 59.7603ZM254.955 44.687C246.892 44.687 240.579 38.6729 240.579 30.0705C240.579 21.5442 246.816 15.4539 254.955 15.4539C262.941 15.4539 268.95 21.468 268.95 30.0705C269.026 38.5968 262.941 44.687 254.955 44.687ZM320.443 59.7603C328.201 59.7603 334.59 57.0197 338.773 51.234V58.6184H355.963V1.52256H342.881C340.371 1.52256 338.925 2.96897 338.925 5.48119V8.90694C334.742 3.12123 328.353 0.380639 320.595 0.380639C305.763 0.380639 293.822 12.485 293.822 30.0705C293.822 47.656 305.611 59.7603 320.443 59.7603ZM325.006 44.687C317.02 44.687 311.011 38.6729 311.011 30.0705C311.011 21.5442 317.02 15.4539 325.006 15.4539C333.069 15.4539 339.382 21.468 339.382 30.0705C339.382 38.5968 333.145 44.687 325.006 44.687ZM390.647 59.7603C405.098 59.7603 413.921 52.2237 413.921 40.5C413.921 32.2782 408.901 26.7209 398.557 24.437L388.441 22.1532C384.562 21.2397 382.508 20.0216 382.508 17.7378C382.508 15.4539 384.41 14.0075 388.745 14.0075C393.993 14.0075 399.47 16.5197 403.197 19.9455L411.715 7.38438C407.608 3.73025 399.165 0.532881 388.669 0.532881C375.13 0.532881 366.003 7.23214 366.003 18.6513C366.003 26.9492 370.643 33.0395 380.607 35.3233L390.723 37.6833C395.743 38.8252 397.34 40.2716 397.34 42.2509C397.34 44.7632 395.286 46.1335 390.647 46.1335C385.17 46.1335 378.553 43.8496 373.229 39.282L364.71 51.8431C368.589 55.4211 377.716 59.7603 390.647 59.7603ZM444.726 59.7603C459.177 59.7603 468 52.2237 468 40.5C468 32.2782 462.98 26.7209 452.636 24.437L442.52 22.1532C438.641 21.2397 436.587 20.0216 436.587 17.7378C436.587 15.4539 438.489 14.0075 442.824 14.0075C448.072 14.0075 453.549 16.5197 457.276 19.9455L465.794 7.38438C461.687 3.73025 453.244 0.532881 442.748 0.532881C429.209 0.532881 420.082 7.23214 420.082 18.6513C420.082 26.9492 424.722 33.0395 434.686 35.3233L444.802 37.6833C449.822 38.8252 451.419 40.2716 451.419 42.2509C451.419 44.7632 449.365 46.1335 444.726 46.1335C439.249 46.1335 432.632 43.8496 427.308 39.282L418.789 51.8431C422.668 55.4211 431.795 59.7603 444.726 59.7603Z" fill="white"/>
</svg>
